<svg width="1920" height="328" viewBox="0 0 1920 328" fill="none" xmlns="http://www.w3.org/2000/svg">
<path d="M378.968 8.142C378.968 8.97267 378.847 9.70533 378.604 10.34C378.361 10.9747 378.03 11.5067 377.61 11.936C377.199 12.356 376.719 12.6733 376.168 12.888C375.617 13.1027 375.034 13.21 374.418 13.21C373.802 13.21 373.219 13.1027 372.668 12.888C372.117 12.6733 371.632 12.356 371.212 11.936C370.801 11.5067 370.475 10.9747 370.232 10.34C369.989 9.70533 369.868 8.97267 369.868 8.142C369.868 7.31133 369.989 6.58333 370.232 5.958C370.475 5.32333 370.801 4.796 371.212 4.376C371.632 3.94667 372.117 3.62467 372.668 3.41C373.219 3.19533 373.802 3.088 374.418 3.088C375.034 3.088 375.617 3.19533 376.168 3.41C376.719 3.62467 377.199 3.94667 377.61 4.376C378.03 4.796 378.361 5.32333 378.604 5.958C378.847 6.58333 378.968 7.31133 378.968 8.142ZM377.96 8.142C377.96 7.48867 377.876 6.90533 377.708 6.392C377.54 5.86933 377.302 5.426 376.994 5.062C376.686 4.698 376.313 4.42267 375.874 4.236C375.445 4.04 374.959 3.942 374.418 3.942C373.877 3.942 373.387 4.04 372.948 4.236C372.519 4.42267 372.15 4.698 371.842 5.062C371.534 5.426 371.296 5.86933 371.128 6.392C370.96 6.90533 370.876 7.48867 370.876 8.142C370.876 8.79533 370.96 9.38333 371.128 9.906C371.296 10.4193 371.534 10.858 371.842 11.222C372.15 11.586 372.519 11.866 372.948 12.062C373.387 12.258 373.877 12.356 374.418 12.356C374.959 12.356 375.445 12.258 375.874 12.062C376.313 11.866 376.686 11.586 376.994 11.222C377.302 10.858 377.54 10.4193 377.708 9.906C377.876 9.38333 377.96 8.79533 377.96 8.142ZM384.602 13.21C383.958 13.21 383.407 13.112 382.95 12.916C382.502 12.72 382.138 12.4493 381.858 12.104C381.578 11.7587 381.372 11.3573 381.242 10.9C381.12 10.4333 381.06 9.934 381.06 9.402V3.298H382.012V9.276C382.012 9.808 382.072 10.27 382.194 10.662C382.324 11.0447 382.502 11.362 382.726 11.614C382.95 11.866 383.22 12.0527 383.538 12.174C383.855 12.2953 384.21 12.356 384.602 12.356C384.994 12.356 385.348 12.2953 385.666 12.174C385.983 12.0527 386.254 11.866 386.478 11.614C386.702 11.362 386.874 11.0447 386.996 10.662C387.126 10.27 387.192 9.808 387.192 9.276V3.298H388.144V9.402C388.144 9.934 388.078 10.4333 387.948 10.9C387.826 11.3573 387.626 11.7587 387.346 12.104C387.066 12.4493 386.697 12.72 386.24 12.916C385.792 13.112 385.246 13.21 384.602 13.21ZM397.085 6.21C397.085 6.938 396.894 7.512 396.511 7.932C396.129 8.352 395.625 8.65533 394.999 8.842C395.149 9.02867 395.34 9.28067 395.573 9.598C395.816 9.91533 396.063 10.2653 396.315 10.648C396.567 11.0213 396.815 11.4133 397.057 11.824C397.3 12.2347 397.505 12.6267 397.673 13H396.651C396.455 12.6267 396.241 12.2533 396.007 11.88C395.783 11.5067 395.55 11.1473 395.307 10.802C395.074 10.4473 394.845 10.1207 394.621 9.822C394.397 9.52333 394.201 9.262 394.033 9.038C393.735 9.066 393.436 9.08 393.137 9.08H391.569V13H390.617V3.48C390.953 3.38667 391.345 3.32133 391.793 3.284C392.251 3.23733 392.671 3.214 393.053 3.214C394.388 3.214 395.391 3.466 396.063 3.97C396.745 4.474 397.085 5.22067 397.085 6.21ZM393.165 4.04C392.811 4.04 392.498 4.054 392.227 4.082C391.966 4.10067 391.747 4.11933 391.569 4.138V8.268H392.885C393.324 8.268 393.739 8.24933 394.131 8.212C394.523 8.16533 394.864 8.072 395.153 7.932C395.443 7.78267 395.671 7.57267 395.839 7.302C396.007 7.03133 396.091 6.66267 396.091 6.196C396.091 5.76667 396.007 5.412 395.839 5.132C395.671 4.852 395.452 4.63267 395.181 4.474C394.911 4.306 394.598 4.194 394.243 4.138C393.898 4.07267 393.539 4.04 393.165 4.04ZM406.489 13.21C405.864 13.21 405.281 13.098 404.739 12.874C404.207 12.65 403.741 12.3233 403.339 11.894C402.947 11.4647 402.635 10.9373 402.401 10.312C402.177 9.67733 402.065 8.954 402.065 8.142C402.065 7.33 402.187 6.61133 402.429 5.986C402.681 5.35133 403.013 4.81933 403.423 4.39C403.834 3.96067 404.31 3.63867 404.851 3.424C405.393 3.2 405.957 3.088 406.545 3.088C406.909 3.088 407.241 3.11133 407.539 3.158C407.838 3.20467 408.099 3.26533 408.323 3.34C408.547 3.40533 408.739 3.47533 408.897 3.55C409.056 3.61533 409.177 3.676 409.261 3.732L408.953 4.558C408.72 4.418 408.421 4.28267 408.057 4.152C407.703 4.012 407.259 3.942 406.727 3.942C406.121 3.942 405.589 4.04467 405.131 4.25C404.683 4.45533 404.305 4.74467 403.997 5.118C403.689 5.49133 403.456 5.93467 403.297 6.448C403.148 6.96133 403.073 7.53067 403.073 8.156C403.073 8.8 403.148 9.38333 403.297 9.906C403.456 10.4193 403.685 10.858 403.983 11.222C404.282 11.586 404.646 11.866 405.075 12.062C405.514 12.258 406.013 12.356 406.573 12.356C407.189 12.356 407.703 12.3 408.113 12.188C408.533 12.0667 408.851 11.9453 409.065 11.824L409.331 12.636C409.266 12.6827 409.154 12.7387 408.995 12.804C408.837 12.86 408.636 12.9207 408.393 12.986C408.151 13.0513 407.871 13.1027 407.553 13.14C407.236 13.1867 406.881 13.21 406.489 13.21ZM416.505 12.174V13H410.989V3.298H411.941V12.174H416.505ZM418.016 3.298H418.968V13H418.016V3.298ZM421.489 13V3.298H427.089V4.124H422.441V7.498H426.585V8.31H422.441V12.174H427.453V13H421.489ZM435.862 13C435.685 12.6733 435.456 12.2907 435.176 11.852C434.905 11.4133 434.607 10.9467 434.28 10.452C433.953 9.948 433.608 9.43467 433.244 8.912C432.88 8.38 432.516 7.86667 432.152 7.372C431.797 6.868 431.447 6.39667 431.102 5.958C430.766 5.51933 430.463 5.14133 430.192 4.824V13H429.254V3.298H430.01C430.486 3.83 430.995 4.446 431.536 5.146C432.087 5.83667 432.623 6.546 433.146 7.274C433.669 7.99267 434.154 8.69733 434.602 9.388C435.059 10.0787 435.433 10.6807 435.722 11.194V3.298H436.66V13H435.862ZM445.34 3.298V4.124H442.232V13H441.28V4.124H438.172V3.298H445.34ZM448.936 12.384C449.692 12.384 450.28 12.2487 450.7 11.978C451.12 11.698 451.33 11.25 451.33 10.634C451.33 10.2793 451.26 9.98533 451.12 9.752C450.989 9.50933 450.812 9.30867 450.588 9.15C450.364 8.982 450.107 8.842 449.818 8.73C449.529 8.60867 449.225 8.48267 448.908 8.352C448.507 8.19333 448.147 8.03 447.83 7.862C447.513 7.694 447.242 7.50733 447.018 7.302C446.794 7.08733 446.621 6.84467 446.5 6.574C446.388 6.30333 446.332 5.986 446.332 5.622C446.332 4.79133 446.607 4.16133 447.158 3.732C447.709 3.30267 448.474 3.088 449.454 3.088C449.715 3.088 449.972 3.10667 450.224 3.144C450.476 3.18133 450.709 3.23267 450.924 3.298C451.148 3.354 451.349 3.41933 451.526 3.494C451.713 3.56867 451.867 3.648 451.988 3.732L451.652 4.53C451.381 4.34333 451.05 4.194 450.658 4.082C450.275 3.97 449.86 3.914 449.412 3.914C449.104 3.914 448.819 3.94667 448.558 4.012C448.306 4.068 448.087 4.166 447.9 4.306C447.713 4.43667 447.564 4.60467 447.452 4.81C447.349 5.01533 447.298 5.26267 447.298 5.552C447.298 5.85067 447.354 6.10267 447.466 6.308C447.578 6.51333 447.732 6.69067 447.928 6.84C448.133 6.98933 448.371 7.12467 448.642 7.246C448.913 7.36733 449.207 7.49333 449.524 7.624C449.907 7.78267 450.266 7.94133 450.602 8.1C450.947 8.25867 451.246 8.44533 451.498 8.66C451.75 8.87467 451.951 9.136 452.1 9.444C452.249 9.752 452.324 10.13 452.324 10.578C452.324 11.4553 452.016 12.1133 451.4 12.552C450.793 12.9907 449.967 13.21 448.922 13.21C448.549 13.21 448.208 13.1867 447.9 13.14C447.592 13.0933 447.317 13.0373 447.074 12.972C446.831 12.8973 446.626 12.8227 446.458 12.748C446.29 12.6733 446.159 12.608 446.066 12.552L446.374 11.726C446.467 11.782 446.593 11.8473 446.752 11.922C446.911 11.9967 447.097 12.0713 447.312 12.146C447.527 12.2113 447.769 12.2673 448.04 12.314C448.311 12.3607 448.609 12.384 448.936 12.384Z" fill="#C2C2C2"/>
<rect y="9" width="350" height="0.5" fill="#C2C2C2"/>
<rect x="500" y="9" width="1420" height="0.5" fill="#C2C2C2"/>
<path fill-rule="evenodd" clip-rule="evenodd" d="M577.978 188.741L575.074 188.744L575.084 199.611C575.089 202.609 573.36 203.702 571.1 203.747C568.843 203.702 567.649 202.248 567.644 199.276L567.642 188.752H564.765L564.773 199.282C564.781 205.127 567.609 206.792 571.108 206.792C573.082 206.792 574.433 205.933 575.092 205.144L575.089 207.787C575.036 209.779 574.389 211.783 573.197 212.414C572.07 213.002 571.227 212.851 570.911 212.841V215.969C570.911 215.969 573.066 216.235 574.954 215.162C576.775 214.111 578.001 210.93 577.995 207.578L577.978 188.741ZM466.17 188.67C464.16 188.67 462.786 189.54 462.11 190.31L462.095 181.457L459.144 181.462L459.166 206.71L462.124 206.702L462.113 196.548C462.113 193.565 463.873 191.755 466.175 191.708C468.485 191.752 469.705 193.908 469.709 196.9L469.719 206.692H472.634L472.628 196.9C472.616 191.037 469.738 188.66 466.171 188.67H466.17ZM517.511 196.72C517.933 193.382 519.733 191.37 522.441 191.37C525.814 191.37 527.143 193.944 527.457 196.72H517.511ZM522.516 188.598C517.81 188.605 514.602 192.685 514.606 198.086C514.612 203.497 517.967 206.861 522.843 206.85C525.734 206.85 527.58 205.8 529.56 203.448L529.686 203.312L527.874 201.602L527.754 201.73C526.247 203.42 524.931 204.034 522.907 204.034C519.853 204.034 517.894 202.672 517.493 199.324L530.139 199.313L530.164 199.15C530.187 198.735 530.184 198.45 530.187 198.22C530.184 192.465 527.287 188.594 522.516 188.598ZM536.435 190.769V188.781H533.474L533.492 206.626H536.448L536.442 196.412C536.439 193.419 538.852 191.804 541.145 191.751C541.465 191.765 541.786 191.797 542.08 191.859V188.676C541.769 188.633 541.455 188.614 541.141 188.619C538.991 188.611 537.436 189.362 536.435 190.769ZM448.154 192.735C444.731 191.865 442.524 191.249 442.524 188.239C442.522 185.73 444.58 184.2 447.669 184.195C449.831 184.195 451.919 185.125 453.179 186.785L455.351 184.772C454.454 183.092 451.566 181.126 447.62 181.132C443.052 181.14 439.618 184.227 439.618 188.32C439.623 193.443 443.264 194.7 446.962 195.646C450.547 196.562 453.058 197.516 453.058 200.45C453.06 203.155 451.048 203.902 447.687 203.902C444.229 203.909 442.237 201.897 441.211 200.291L439 202.369C439.762 204.504 443.386 206.972 447.725 206.972C452.758 206.957 456.01 204.789 455.999 200.325C456.007 195.331 452.199 193.741 448.154 192.735ZM558.03 181.354L558.055 206.59L560.969 206.575L560.949 181.348L558.029 181.354H558.03ZM486.12 188.846L486.125 199.618C486.132 202.62 484.758 203.721 482.463 203.765C480.155 203.728 478.791 202.62 478.785 199.635L478.775 188.849H475.835L475.848 199.774C475.854 204.662 478.327 206.904 482.463 206.896C486.6 206.889 489.063 204.649 489.06 199.767L489.05 188.835L486.12 188.845V188.846ZM510.556 203.303C509.33 202.689 508.666 201.888 508.586 199.896L508.58 191.92L512.884 191.916L512.876 188.814L508.573 188.821L508.57 181.41H505.616L505.63 188.822H503.508V191.932H505.632L505.642 199.903C505.644 203.245 506.899 205.018 508.769 206.061C510.694 207.128 512.897 206.855 512.897 206.855L512.892 203.737C512.562 203.737 511.699 203.892 510.556 203.304V203.303ZM498.92 203.311C497.695 202.689 497.025 201.897 496.943 199.908V191.941L501.244 191.931V188.824L496.936 188.831L496.934 181.421H493.992L493.997 188.831H491.874L491.882 191.946H494.005L494.008 199.908C494.017 203.262 495.268 205.026 497.129 206.074C499.054 207.149 501.261 206.874 501.261 206.874V203.747C500.929 203.747 500.065 203.9 498.92 203.311ZM554.132 188.751H549.826V188.593C549.897 186.605 550.561 185.223 551.786 184.589C552.932 184.001 553.8 184.156 554.129 184.156V181.018C554.129 181.018 551.909 180.8 549.994 181.878C548.145 182.933 546.887 185.454 546.89 188.802L546.887 188.756H544.764L544.768 191.859H546.89L546.904 206.601L549.846 206.593L549.829 191.851L554.137 191.847L554.132 188.752V188.751Z" fill="#B2B2B2"/>
<path fill-rule="evenodd" clip-rule="evenodd" d="M757.707 187H735.064C734.734 188.32 735.724 189.42 736.933 189.42H757.597C760.345 189.42 762.543 192.06 761.884 194.92C761.334 197.01 759.795 203.28 759.795 203.28C759.355 205.26 757.597 206.58 755.508 206.58H738.691C737.922 206.58 737.262 205.92 737.482 205.04C738.032 202.95 739.571 196.79 739.571 196.79C739.901 195.58 738.911 194.37 737.702 194.37C737.702 194.37 735.834 201.85 735.174 204.38C734.514 206.8 736.274 209 738.691 209H755.618C758.696 209 761.444 206.8 762.213 203.83C762.213 203.83 763.753 197.56 764.302 195.47C765.51 190.85 761.884 187 757.707 187ZM788.373 206.58C787.933 208.67 787.384 209 786.285 209H765.73C765.446 209.01 765.164 208.937 764.92 208.791C764.675 208.646 764.477 208.433 764.35 208.178C764.222 207.923 764.171 207.637 764.201 207.354C764.231 207.071 764.342 206.802 764.52 206.58H788.372H788.373ZM822.557 187C822.117 189.09 821.567 189.42 820.469 189.42H803.432C801.453 189.42 799.695 190.74 799.145 192.72C798.595 194.81 797.606 198.99 797.057 201.08C796.287 204.05 798.595 206.58 801.343 206.58H817.611C817.908 206.575 818.202 206.64 818.469 206.769C818.737 206.897 818.971 207.087 819.152 207.322C819.334 207.557 819.458 207.831 819.514 208.122C819.571 208.414 819.559 208.714 819.479 209H801.343C796.727 209 793.649 204.82 794.748 200.53C795.188 198.44 796.288 194.37 796.837 192.17C797.497 189.09 800.244 187 803.432 187H822.557ZM845.639 187H832.78C829.703 187 826.955 189.2 826.185 192.17C825.635 194.26 824.646 198.33 824.097 200.53C823.107 204.82 826.185 209 830.692 209H843.552C846.63 209 849.378 206.8 850.147 203.83C850.697 201.74 851.686 197.67 852.235 195.47C853.335 191.18 850.257 187 845.64 187H845.639ZM849.926 194.92C849.376 197.01 848.387 201.08 847.838 203.28C847.398 205.26 845.639 206.58 843.551 206.58H830.691C828.053 206.58 825.635 204.05 826.404 201.08C826.954 198.99 827.943 194.81 828.493 192.72C829.043 190.63 830.911 189.42 832.669 189.42H845.639C848.387 189.42 850.696 191.95 849.926 194.92ZM790.791 196.79L790.132 199.21H770.017L771.886 196.79H790.79H790.791ZM777.381 189.42C778.482 187.99 779.032 187 780.68 187H790.792C791.089 186.995 791.383 187.06 791.651 187.188C791.918 187.317 792.152 187.506 792.334 187.741C792.515 187.976 792.64 188.251 792.696 188.542C792.753 188.834 792.741 189.134 792.661 189.42H777.382H777.381ZM861.467 189.42C860.917 189.42 860.368 189.86 860.258 190.3C860.258 190.3 859.378 193.93 859.049 195.14C858.829 196.02 859.489 196.68 860.259 196.68H876.965C879.384 196.68 881.142 198.88 880.483 201.19C880.153 202.4 879.603 204.82 879.273 206.03C878.943 207.35 877.735 208.78 875.756 208.78H853.004C853.444 206.69 853.993 206.36 855.092 206.36H875.756C876.306 206.36 876.746 205.92 876.966 205.48C876.966 205.48 877.845 201.85 878.174 200.64C878.394 199.87 877.734 199.1 876.965 199.1H860.258C857.62 199.1 856.081 196.79 856.631 194.59C856.961 193.38 857.511 190.96 857.841 189.75C858.28 187.99 859.818 187 861.356 187H884C883.56 189.09 883.01 189.42 881.912 189.42H861.467Z" fill="#B2B2B2"/>
<path fill-rule="evenodd" clip-rule="evenodd" d="M797.987 292.43L795.333 300.985C796.143 301.302 797.043 301.483 797.987 301.483C798.931 301.483 799.831 301.303 800.595 301.031L797.987 292.431V292.43ZM767 276V319H809.77L851.595 276H767ZM818.585 302.479H815.886V310.672H803.563L802.349 306.734C801.045 307.186 799.561 307.413 797.987 307.413C796.367 307.413 794.883 307.141 793.534 306.688L792.275 310.626H784.719L785.529 308.363C785.439 308.453 785.349 308.544 785.214 308.635C783.325 310.219 780.942 311.034 778.064 311.125H777.614C774.241 311.125 770.958 310.174 768.169 308.545L770.733 303.294C773.521 304.968 775.275 305.376 777.613 305.331C778.828 305.285 779.727 305.059 780.313 304.471C780.672 304.108 780.852 303.656 780.852 303.158C780.897 301.8 779.008 301.166 776.669 300.397C774.78 299.808 772.667 298.994 771.003 297.727C769.023 296.233 768.079 294.377 768.124 291.752C768.169 289.851 768.844 288.131 770.104 286.772C771.946 284.827 774.87 283.65 778.423 283.65C781.48 283.65 785.168 284.556 787.867 285.959L784.943 291.164C782.02 289.716 780.536 289.58 778.872 289.489C776.353 289.354 775.094 290.259 775.094 291.255C775.094 292.432 777.433 293.563 779.681 294.287C783.099 295.374 787.417 296.867 788.047 301.167L794.253 284.148H801.449L808.734 304.472V284.057H817.054C825.014 284.057 828.748 286.954 828.748 293.336C828.928 299.039 825.06 302.479 818.584 302.479H818.585ZM817.73 289.669H815.886V296.549H817.73C820.159 296.549 822.137 295.735 822.137 293.064C822.137 290.529 820.159 289.669 817.73 289.669Z" fill="#B2B2B2"/>
<path fill-rule="evenodd" clip-rule="evenodd" d="M1096.9 83.29C1096.32 82.9441 1095.71 82.6624 1095.07 82.45C1094.38 82.2212 1093.65 82.1073 1092.92 82.113C1092.53 82.113 1092.17 82.15 1091.85 82.226C1091.55 82.2909 1091.26 82.4012 1091 82.553C1090.78 82.6815 1090.59 82.8594 1090.44 83.073C1090.31 83.2821 1090.24 83.5264 1090.24 83.775C1090.24 84.0082 1090.31 84.2365 1090.46 84.418C1090.6 84.588 1090.8 84.735 1091.06 84.852C1091.31 84.972 1091.62 85.072 1091.97 85.155C1092.33 85.237 1092.72 85.311 1093.13 85.377L1093.92 85.506C1094.52 85.5973 1095.11 85.7426 1095.68 85.94C1096.19 86.1132 1096.67 86.3671 1097.1 86.692C1097.5 87.002 1097.81 87.378 1098.04 87.82C1098.27 88.262 1098.39 88.783 1098.39 89.383C1098.39 90.148 1098.23 90.813 1097.92 91.377C1097.61 91.9353 1097.18 92.4156 1096.65 92.781C1096.1 93.1658 1095.48 93.4489 1094.82 93.617C1094.11 93.8032 1093.39 93.8964 1092.65 93.894C1092.12 93.894 1091.58 93.855 1091.04 93.78C1090.51 93.7054 1089.98 93.5914 1089.47 93.439C1088.97 93.29 1088.48 93.0996 1088.01 92.87C1087.56 92.6534 1087.14 92.3899 1086.75 92.084L1088.2 89.858C1088.46 90.056 1088.75 90.245 1089.07 90.428C1089.78 90.8146 1090.55 91.0866 1091.35 91.234C1091.77 91.311 1092.21 91.351 1092.66 91.351C1093.05 91.351 1093.41 91.315 1093.75 91.242C1094.09 91.17 1094.38 91.062 1094.63 90.916C1094.86 90.7862 1095.05 90.6077 1095.21 90.393C1095.35 90.187 1095.42 89.951 1095.42 89.68C1095.42 89.443 1095.35 89.238 1095.23 89.066C1095.08 88.8759 1094.88 88.7249 1094.66 88.626C1094.36 88.487 1094.05 88.381 1093.73 88.31C1093.3 88.21 1092.88 88.1259 1092.44 88.058L1091.56 87.919C1090.97 87.8299 1090.4 87.6859 1089.84 87.489C1089.35 87.318 1088.9 87.0618 1088.49 86.732C1088.11 86.4172 1087.81 86.022 1087.6 85.575C1087.39 85.12 1087.28 84.579 1087.28 83.952C1087.28 83.234 1087.43 82.6 1087.74 82.048C1088.04 81.498 1088.45 81.039 1088.96 80.674C1089.5 80.2942 1090.1 80.0128 1090.74 79.843C1091.43 79.6524 1092.15 79.5576 1092.87 79.561C1093.35 79.561 1093.82 79.588 1094.28 79.645C1095.19 79.7556 1096.07 79.9988 1096.91 80.367C1097.34 80.555 1097.78 80.777 1098.22 81.034L1096.9 83.29H1096.9ZM1106.15 83.805C1106.82 83.805 1107.44 83.933 1108.01 84.19C1108.57 84.4394 1109.08 84.7991 1109.5 85.248C1109.92 85.697 1110.25 86.229 1110.49 86.846C1110.73 87.462 1110.85 88.13 1110.85 88.849C1110.86 89.5329 1110.74 90.212 1110.5 90.852C1110.28 91.4438 1109.94 91.9867 1109.51 92.45C1109.09 92.898 1108.59 93.25 1108.02 93.508C1107.43 93.7678 1106.8 93.8994 1106.16 93.894C1105.51 93.894 1104.95 93.779 1104.48 93.553C1104.03 93.3355 1103.63 93.027 1103.31 92.647V97.603H1100.71V84.062H1103.26V85.12C1103.58 84.724 1103.97 84.406 1104.44 84.165C1104.91 83.925 1105.48 83.805 1106.15 83.805ZM1112.98 93.647H1115.59V84.062H1112.98V93.647ZM1122.43 83.805C1123.08 83.805 1123.64 83.919 1124.1 84.151C1124.56 84.381 1124.96 84.684 1125.28 85.061V79.402H1127.88V93.646H1125.33V92.588C1125.01 92.977 1124.61 93.292 1124.14 93.533C1123.66 93.773 1123.09 93.894 1122.43 93.894C1121.78 93.8992 1121.15 93.7676 1120.57 93.508C1120 93.2586 1119.5 92.8988 1119.07 92.45C1118.64 91.9864 1118.31 91.4436 1118.09 90.852C1117.85 90.2121 1117.73 89.5329 1117.73 88.849C1117.73 88.129 1117.85 87.462 1118.09 86.846C1118.32 86.229 1118.65 85.696 1119.07 85.248C1119.49 84.8 1119.99 84.448 1120.56 84.19C1121.15 83.9303 1121.78 83.799 1122.43 83.805ZM1134.92 83.804C1135.62 83.804 1136.26 83.926 1136.83 84.17C1137.4 84.4045 1137.9 84.7555 1138.32 85.2C1138.74 85.64 1139.06 86.172 1139.29 86.79C1139.52 87.412 1139.63 88.094 1139.63 88.839C1139.63 89.1297 1139.62 89.4202 1139.58 89.709H1132.71C1132.78 90.059 1132.89 90.359 1133.04 90.605C1133.19 90.852 1133.38 91.059 1133.6 91.223C1133.81 91.388 1134.06 91.508 1134.33 91.584C1134.6 91.66 1134.89 91.697 1135.2 91.697C1135.62 91.697 1136.05 91.619 1136.48 91.46C1136.91 91.302 1137.3 91.075 1137.65 90.778L1139.18 92.44C1138.64 92.9325 1138.01 93.308 1137.32 93.543C1136.58 93.7831 1135.82 93.9016 1135.05 93.894C1134.31 93.894 1133.63 93.773 1133.01 93.533C1132.42 93.3063 1131.88 92.9591 1131.42 92.513C1130.97 92.0633 1130.62 91.5246 1130.39 90.931C1130.14 90.315 1130.02 89.631 1130.02 88.878C1130.02 88.126 1130.14 87.439 1130.38 86.817C1130.6 86.2203 1130.94 85.6751 1131.38 85.214C1131.82 84.7642 1132.35 84.4104 1132.93 84.175C1133.56 83.9215 1134.24 83.7954 1134.92 83.804H1134.92ZM1147.02 83.804C1147.3 83.804 1147.56 83.822 1147.78 83.858C1148 83.894 1148.21 83.946 1148.39 84.012L1148 86.574C1147.75 86.4734 1147.5 86.3987 1147.25 86.351C1146.97 86.2965 1146.69 86.2683 1146.41 86.267C1146.11 86.267 1145.84 86.313 1145.59 86.406C1145.35 86.4929 1145.13 86.631 1144.94 86.811C1144.76 86.989 1144.62 87.214 1144.52 87.483C1144.42 87.7849 1144.37 88.1032 1144.37 88.423V93.647H1141.76V84.062H1144.29V85.11C1144.57 84.6772 1144.97 84.3326 1145.44 84.116C1145.9 83.908 1146.42 83.804 1147.02 83.804ZM1096.9 103.302C1096.32 102.956 1095.71 102.674 1095.07 102.462C1094.38 102.233 1093.65 102.119 1092.92 102.125C1092.53 102.125 1092.17 102.162 1091.85 102.238C1091.55 102.303 1091.26 102.413 1091 102.565C1090.78 102.693 1090.59 102.871 1090.44 103.085C1090.31 103.294 1090.24 103.538 1090.24 103.787C1090.24 104.02 1090.31 104.249 1090.46 104.43C1090.6 104.601 1090.8 104.747 1091.06 104.865C1091.31 104.983 1091.62 105.085 1091.97 105.167C1092.33 105.25 1092.72 105.323 1093.13 105.389L1093.92 105.519C1094.52 105.61 1095.11 105.756 1095.68 105.953C1096.19 106.126 1096.67 106.38 1097.1 106.705C1097.5 107.015 1097.81 107.39 1098.04 107.832C1098.27 108.274 1098.39 108.795 1098.39 109.395C1098.39 110.161 1098.23 110.825 1097.92 111.389C1097.61 111.947 1097.18 112.428 1096.65 112.793C1096.1 113.178 1095.48 113.461 1094.82 113.629C1094.11 113.815 1093.39 113.908 1092.65 113.906C1092.12 113.906 1091.58 113.868 1091.04 113.792C1090.51 113.717 1089.98 113.603 1089.47 113.451C1088.97 113.302 1088.48 113.112 1088.01 112.882C1087.56 112.665 1087.14 112.402 1086.75 112.096L1088.2 109.87C1088.46 110.068 1088.75 110.258 1089.07 110.44C1089.78 110.827 1090.55 111.099 1091.35 111.246C1091.77 111.324 1092.21 111.363 1092.66 111.363C1093.05 111.363 1093.41 111.327 1093.75 111.255C1094.09 111.182 1094.38 111.074 1094.63 110.929C1094.86 110.799 1095.05 110.62 1095.21 110.405C1095.35 110.199 1095.42 109.963 1095.42 109.693C1095.42 109.455 1095.35 109.25 1095.23 109.079C1095.08 108.889 1094.88 108.738 1094.66 108.639C1094.36 108.5 1094.05 108.393 1093.73 108.322C1093.3 108.222 1092.88 108.138 1092.44 108.07L1091.56 107.932C1090.97 107.843 1090.4 107.698 1089.84 107.501C1089.35 107.33 1088.9 107.074 1088.49 106.744C1088.11 106.429 1087.81 106.034 1087.6 105.587C1087.39 105.133 1087.28 104.591 1087.28 103.965C1087.28 103.246 1087.43 102.612 1087.74 102.061C1088.04 101.516 1088.45 101.046 1088.96 100.686C1089.5 100.307 1090.1 100.026 1090.74 99.856C1091.43 99.6651 1092.15 99.5699 1092.87 99.573C1093.35 99.573 1093.82 99.601 1094.28 99.657C1095.19 99.7676 1096.07 100.011 1096.91 100.379C1097.34 100.567 1097.78 100.789 1098.22 101.047L1096.9 103.302H1096.9ZM1107.55 106.368H1104.04V109.87C1104.04 110.167 1104.08 110.42 1104.15 110.627C1104.23 110.835 1104.33 111.003 1104.46 111.131C1104.59 111.261 1104.75 111.354 1104.93 111.413C1105.1 111.473 1105.29 111.503 1105.49 111.503C1105.8 111.503 1106.12 111.439 1106.43 111.309C1106.75 111.181 1107.04 111.038 1107.31 110.879L1108.27 112.897C1107.84 113.187 1107.37 113.427 1106.86 113.619C1106.35 113.81 1105.75 113.906 1105.06 113.906C1103.85 113.906 1102.95 113.579 1102.34 112.926C1101.73 112.274 1101.43 111.324 1101.43 110.078V106.368H1099.56V104.074H1101.43V101.226H1104.04V104.074H1107.55V106.368H1107.55ZM1115.11 103.817C1115.39 103.817 1115.65 103.834 1115.87 103.87C1116.09 103.907 1116.29 103.958 1116.47 104.025L1116.08 106.586C1115.84 106.485 1115.59 106.411 1115.33 106.363C1115.06 106.309 1114.78 106.281 1114.5 106.28C1114.2 106.28 1113.93 106.325 1113.68 106.418C1113.44 106.505 1113.22 106.644 1113.03 106.824C1112.85 107.001 1112.71 107.226 1112.61 107.496C1112.51 107.766 1112.46 108.079 1112.46 108.436V113.659H1109.85V104.074H1112.38V105.123C1112.66 104.69 1113.06 104.345 1113.53 104.128C1113.98 103.92 1114.51 103.817 1115.11 103.817H1115.11ZM1127.47 113.659H1124.92V112.6C1124.59 112.995 1124.18 113.317 1123.73 113.545C1123.25 113.785 1122.68 113.906 1122.02 113.906C1121.38 113.911 1120.74 113.78 1120.16 113.521C1119.59 113.271 1119.09 112.911 1118.67 112.462C1118.24 111.999 1117.9 111.456 1117.68 110.865C1117.44 110.225 1117.32 109.545 1117.32 108.861C1117.32 108.142 1117.44 107.474 1117.68 106.859C1117.92 106.241 1118.25 105.709 1118.67 105.26C1119.08 104.812 1119.58 104.46 1120.15 104.203C1120.74 103.943 1121.38 103.811 1122.02 103.817C1122.68 103.817 1123.25 103.937 1123.73 104.177C1124.2 104.418 1124.6 104.737 1124.92 105.132V104.074H1127.47V113.659ZM1137.24 106.369H1133.73V109.869C1133.73 110.167 1133.77 110.419 1133.85 110.627C1133.92 110.835 1134.03 111.003 1134.16 111.131C1134.29 111.261 1134.44 111.354 1134.62 111.413C1134.79 111.473 1134.98 111.503 1135.18 111.503C1135.5 111.503 1135.81 111.439 1136.13 111.309C1136.44 111.181 1136.74 111.038 1137 110.879L1137.96 112.897C1137.53 113.187 1137.07 113.427 1136.55 113.619C1136.04 113.81 1135.44 113.906 1134.75 113.906C1133.54 113.906 1132.64 113.579 1132.03 112.926C1131.42 112.274 1131.12 111.324 1131.12 110.078V106.368H1129.25V104.074H1131.12V101.226H1133.73V104.074H1137.24V106.368V106.369ZM1143.72 103.816C1144.42 103.816 1145.06 103.938 1145.64 104.183C1146.2 104.417 1146.71 104.768 1147.13 105.212C1147.54 105.652 1147.86 106.184 1148.09 106.803C1148.32 107.423 1148.44 108.106 1148.44 108.851C1148.44 109.142 1148.42 109.432 1148.39 109.721H1141.51C1141.58 110.071 1141.69 110.371 1141.84 110.617C1142 110.865 1142.18 111.071 1142.4 111.235C1142.62 111.4 1142.86 111.521 1143.13 111.596C1143.41 111.672 1143.7 111.709 1144 111.709C1144.42 111.709 1144.85 111.631 1145.28 111.473C1145.71 111.314 1146.1 111.087 1146.46 110.791L1147.99 112.452C1147.45 112.944 1146.81 113.32 1146.12 113.555C1145.39 113.795 1144.62 113.914 1143.85 113.906C1143.11 113.906 1142.43 113.786 1141.82 113.546C1141.22 113.319 1140.68 112.972 1140.23 112.526C1139.78 112.076 1139.42 111.537 1139.19 110.943C1138.94 110.327 1138.82 109.643 1138.82 108.891C1138.82 108.139 1138.94 107.451 1139.18 106.829C1139.41 106.232 1139.75 105.687 1140.19 105.226C1140.62 104.781 1141.13 104.436 1141.73 104.188C1142.37 103.934 1143.04 103.808 1143.72 103.816ZM1154.43 103.816C1155.11 103.816 1155.69 103.935 1156.19 104.173C1156.68 104.411 1157.1 104.734 1157.43 105.143V104.073H1159.99V112.868C1159.99 113.639 1159.87 114.33 1159.62 114.94C1159.39 115.53 1159.04 116.06 1158.57 116.492C1158.1 116.929 1157.54 117.261 1156.92 117.467C1156.28 117.691 1155.56 117.803 1154.76 117.803C1153.99 117.802 1153.22 117.704 1152.47 117.511C1152.11 117.418 1151.76 117.298 1151.43 117.151C1151.11 117.013 1150.8 116.844 1150.52 116.646L1151.45 114.539C1151.93 114.855 1152.44 115.098 1152.97 115.266C1153.5 115.435 1154.06 115.518 1154.65 115.518C1155.05 115.518 1155.43 115.464 1155.76 115.355C1156.1 115.247 1156.39 115.085 1156.63 114.87C1156.88 114.657 1157.07 114.39 1157.2 114.074C1157.35 113.726 1157.42 113.353 1157.41 112.977V112.304C1157.07 112.708 1156.65 113.032 1156.17 113.254C1155.68 113.484 1155.1 113.6 1154.43 113.6C1153.85 113.602 1153.27 113.483 1152.73 113.249C1152.2 113.016 1151.72 112.68 1151.31 112.259C1150.89 111.813 1150.56 111.289 1150.33 110.716C1150.08 110.078 1149.96 109.398 1149.97 108.713C1149.97 107.974 1150.09 107.305 1150.33 106.705C1150.58 106.105 1150.9 105.59 1151.31 105.162C1151.71 104.739 1152.2 104.401 1152.73 104.168C1153.27 103.934 1153.85 103.814 1154.43 103.817V103.816ZM1162.73 113.658H1165.34V104.074H1162.73V113.658ZM1164.02 99.276C1164.25 99.276 1164.47 99.319 1164.68 99.405C1164.87 99.4854 1165.06 99.6046 1165.21 99.7557C1165.36 99.9068 1165.48 100.087 1165.56 100.285C1165.65 100.49 1165.69 100.708 1165.69 100.938C1165.69 101.156 1165.65 101.372 1165.57 101.573C1165.48 101.774 1165.36 101.957 1165.21 102.11C1165.06 102.258 1164.88 102.374 1164.68 102.457C1164.47 102.54 1164.25 102.582 1164.02 102.58C1163.8 102.582 1163.57 102.54 1163.37 102.457C1163.17 102.379 1162.99 102.261 1162.84 102.112C1162.69 101.962 1162.57 101.784 1162.49 101.587C1162.4 101.381 1162.36 101.16 1162.36 100.938C1162.36 100.708 1162.4 100.49 1162.49 100.286C1162.57 100.08 1162.69 99.904 1162.84 99.756C1163.15 99.4457 1163.58 99.2732 1164.02 99.276ZM1172.38 103.816C1173.08 103.816 1173.72 103.938 1174.3 104.183C1174.86 104.417 1175.37 104.768 1175.79 105.212C1176.2 105.652 1176.52 106.184 1176.75 106.803C1176.98 107.423 1177.1 108.106 1177.1 108.851C1177.1 109.142 1177.08 109.432 1177.05 109.721H1170.17C1170.24 110.071 1170.35 110.371 1170.5 110.617C1170.66 110.865 1170.84 111.071 1171.06 111.235C1171.28 111.4 1171.52 111.521 1171.79 111.596C1172.07 111.672 1172.36 111.709 1172.66 111.709C1173.08 111.709 1173.51 111.631 1173.94 111.473C1174.37 111.314 1174.76 111.087 1175.12 110.791L1176.65 112.452C1176.11 112.944 1175.47 113.32 1174.78 113.555C1174.05 113.795 1173.28 113.914 1172.51 113.906C1171.77 113.906 1171.1 113.786 1170.48 113.546C1169.88 113.319 1169.34 112.972 1168.89 112.526C1168.44 112.076 1168.08 111.537 1167.85 110.943C1167.61 110.327 1167.48 109.643 1167.48 108.891C1167.48 108.139 1167.6 107.451 1167.84 106.829C1168.07 106.232 1168.41 105.687 1168.85 105.226C1169.28 104.781 1169.79 104.436 1170.39 104.188C1171.03 103.934 1171.7 103.808 1172.38 103.816ZM1186.11 106.744C1185.65 106.528 1185.17 106.351 1184.68 106.215C1184.41 106.138 1184.13 106.077 1183.85 106.032C1183.58 105.987 1183.3 105.963 1183.02 105.962C1182.52 105.962 1182.14 106.042 1181.9 106.2C1181.65 106.359 1181.53 106.57 1181.53 106.834C1181.52 106.961 1181.57 107.085 1181.65 107.18C1181.75 107.28 1181.86 107.357 1181.99 107.407C1182.13 107.466 1182.29 107.515 1182.49 107.551C1182.68 107.587 1182.89 107.621 1183.11 107.655L1183.97 107.783C1185.02 107.942 1185.83 108.255 1186.39 108.723C1186.96 109.191 1187.24 109.833 1187.24 110.652C1187.24 111.147 1187.14 111.595 1186.94 111.996C1186.74 112.402 1186.44 112.753 1186.07 113.02C1185.69 113.3 1185.22 113.519 1184.67 113.674C1184.06 113.836 1183.42 113.914 1182.79 113.906C1182.45 113.906 1182.1 113.888 1181.73 113.852C1181.36 113.814 1180.98 113.753 1180.61 113.669C1180.23 113.582 1179.86 113.466 1179.5 113.323C1179.14 113.181 1178.79 112.999 1178.48 112.778L1179.51 110.82C1179.71 110.958 1179.93 111.084 1180.17 111.196C1180.68 111.441 1181.23 111.608 1181.79 111.69C1182.1 111.737 1182.44 111.76 1182.81 111.76C1183.41 111.76 1183.87 111.68 1184.16 111.522C1184.45 111.363 1184.6 111.143 1184.6 110.86C1184.6 110.628 1184.47 110.444 1184.22 110.306C1183.96 110.166 1183.56 110.059 1182.99 109.98L1182.2 109.87C1179.96 109.567 1178.85 108.598 1178.85 106.962C1178.85 106.467 1178.94 106.027 1179.13 105.642C1179.31 105.255 1179.58 104.928 1179.94 104.657C1180.29 104.387 1180.72 104.181 1181.22 104.039C1181.78 103.89 1182.36 103.818 1182.94 103.826C1183.32 103.826 1183.69 103.845 1184.04 103.881C1184.72 103.954 1185.39 104.105 1186.03 104.33C1186.35 104.444 1186.67 104.578 1186.99 104.737L1186.11 106.744ZM1053.86 74L1044.07 79.68V90.235L1062.98 79.205L1053.86 74ZM1042.34 80.638L1033 85.91V102.54L1042.34 97.263V80.638ZM1070.1 83.272L1033 104.455V109.737L1037.63 112.377L1074.73 91.196V85.913L1070.1 83.273V83.272ZM1053.87 121.65L1063.66 115.972V105.417L1044.75 116.446L1053.87 121.65ZM1065.4 115.015L1074.73 109.739V93.107L1065.4 98.387V115.015H1065.4ZM1155.09 106.191C1154.71 106.191 1154.38 106.257 1154.08 106.388C1153.79 106.514 1153.53 106.698 1153.31 106.928C1153.09 107.159 1152.93 107.431 1152.82 107.728C1152.7 108.035 1152.65 108.363 1152.65 108.713C1152.65 109.063 1152.7 109.389 1152.82 109.693C1152.93 109.99 1153.09 110.261 1153.31 110.491C1153.53 110.72 1153.79 110.903 1154.08 111.028C1154.4 111.163 1154.74 111.231 1155.09 111.226C1155.45 111.226 1155.78 111.161 1156.08 111.033C1156.37 110.911 1156.63 110.73 1156.85 110.502C1157.07 110.274 1157.24 110.003 1157.34 109.707C1157.46 109.401 1157.52 109.069 1157.52 108.713C1157.52 108.372 1157.46 108.034 1157.34 107.714C1157.24 107.416 1157.07 107.144 1156.85 106.913C1156.64 106.689 1156.38 106.513 1156.08 106.383C1155.77 106.252 1155.43 106.186 1155.09 106.191ZM1122.5 106.221C1122.12 106.221 1121.77 106.289 1121.46 106.428C1121.16 106.559 1120.89 106.752 1120.67 106.994C1120.45 107.236 1120.28 107.521 1120.17 107.832C1120.05 108.162 1119.99 108.511 1120 108.862C1120 109.23 1120.05 109.574 1120.17 109.894C1120.29 110.214 1120.45 110.494 1120.67 110.731C1120.89 110.968 1121.15 111.156 1121.46 111.294C1121.77 111.433 1122.12 111.502 1122.5 111.502C1122.87 111.502 1123.21 111.436 1123.52 111.304C1123.82 111.173 1124.09 110.988 1124.31 110.751C1124.53 110.513 1124.7 110.233 1124.82 109.91C1124.94 109.587 1125 109.237 1125 108.861C1125 108.485 1124.94 108.135 1124.82 107.813C1124.7 107.502 1124.53 107.217 1124.31 106.973C1124.09 106.734 1123.82 106.545 1123.52 106.417C1123.19 106.283 1122.85 106.215 1122.5 106.22L1122.5 106.221ZM1143.7 106.041C1143.08 106.041 1142.59 106.212 1142.23 106.551C1141.87 106.891 1141.64 107.361 1141.52 107.961H1145.82C1145.7 107.341 1145.46 106.866 1145.1 106.537C1144.74 106.207 1144.27 106.042 1143.7 106.042V106.041ZM1172.36 106.041C1171.74 106.041 1171.25 106.212 1170.89 106.551C1170.53 106.891 1170.3 107.361 1170.18 107.961H1174.48C1174.36 107.341 1174.12 106.866 1173.76 106.537C1173.4 106.207 1172.93 106.042 1172.36 106.042V106.041ZM1122.91 86.209C1122.53 86.209 1122.18 86.279 1121.87 86.416C1121.57 86.5475 1121.3 86.7404 1121.08 86.9824C1120.85 87.2243 1120.69 87.5099 1120.58 87.821C1120.46 88.1511 1120.4 88.4994 1120.4 88.85C1120.4 89.219 1120.46 89.563 1120.58 89.883C1120.7 90.203 1120.86 90.482 1121.08 90.719C1121.3 90.957 1121.56 91.145 1121.87 91.283C1122.18 91.422 1122.53 91.491 1122.91 91.491C1123.28 91.491 1123.62 91.425 1123.93 91.293C1124.23 91.162 1124.5 90.976 1124.72 90.74C1124.94 90.502 1125.11 90.222 1125.23 89.898C1125.35 89.576 1125.41 89.226 1125.41 88.85C1125.41 88.474 1125.35 88.124 1125.23 87.802C1125.11 87.4912 1124.94 87.2057 1124.72 86.962C1124.49 86.7232 1124.23 86.5338 1123.93 86.406C1123.6 86.2715 1123.26 86.2045 1122.91 86.209ZM1114.27 79.265C1114.6 79.2627 1114.92 79.3573 1115.2 79.537C1115.47 79.7167 1115.68 79.9735 1115.81 80.275C1115.9 80.479 1115.94 80.696 1115.94 80.927C1115.94 81.1448 1115.9 81.3606 1115.82 81.5618C1115.74 81.763 1115.61 81.9456 1115.46 82.099C1115.31 82.247 1115.13 82.363 1114.93 82.445C1114.72 82.5285 1114.5 82.5706 1114.27 82.569C1114.04 82.569 1113.82 82.528 1113.62 82.445C1113.42 82.3664 1113.24 82.2488 1113.09 82.0994C1112.94 81.9499 1112.82 81.7716 1112.74 81.575C1112.65 81.3695 1112.61 81.1492 1112.61 80.927C1112.61 80.696 1112.65 80.479 1112.74 80.274C1112.82 80.0753 1112.94 79.8948 1113.09 79.7435C1113.24 79.5922 1113.42 79.4733 1113.62 79.394C1113.82 79.307 1114.04 79.265 1114.27 79.265ZM1105.67 86.209C1105.32 86.204 1104.98 86.271 1104.65 86.406C1104.36 86.534 1104.09 86.7231 1103.87 86.961C1103.65 87.199 1103.48 87.479 1103.36 87.801C1103.24 88.1371 1103.18 88.4924 1103.18 88.85C1103.18 89.226 1103.24 89.576 1103.36 89.898C1103.48 90.222 1103.65 90.502 1103.87 90.74C1104.09 90.976 1104.35 91.162 1104.65 91.293C1104.96 91.425 1105.3 91.491 1105.67 91.491C1106.03 91.4968 1106.38 91.4259 1106.71 91.283C1107.01 91.151 1107.28 90.9585 1107.5 90.7176C1107.72 90.4766 1107.89 90.1924 1108 89.883C1108.11 89.563 1108.17 89.219 1108.17 88.85C1108.17 88.487 1108.11 88.144 1108 87.82C1107.89 87.5097 1107.72 87.2242 1107.5 86.98C1107.27 86.7403 1107.01 86.5484 1106.71 86.416C1106.38 86.2738 1106.03 86.2032 1105.67 86.209ZM1134.9 86.031C1134.28 86.031 1133.79 86.201 1133.43 86.541C1133.07 86.881 1132.83 87.349 1132.72 87.95H1137.01C1136.89 87.33 1136.65 86.855 1136.29 86.526C1135.93 86.196 1135.47 86.031 1134.9 86.031H1134.9Z" fill="#B2B2B2"/>
<path fill-rule="evenodd" clip-rule="evenodd" d="M1087.04 185C1088.65 185 1090 183.696 1090 181.979C1090 181.589 1089.93 181.202 1089.78 180.842C1089.63 180.481 1089.41 180.153 1089.14 179.876C1088.86 179.599 1088.53 179.38 1088.17 179.229C1087.81 179.079 1087.43 179.001 1087.04 179C1085.38 179 1084 180.306 1084 181.979C1084 183.696 1085.38 185 1087.04 185ZM1088.5 198.614V189H1084V198.614C1084 203.797 1088.03 208 1093 208V203.316C1090.52 203.316 1088.5 201.204 1088.5 198.614H1088.5ZM1109.39 190.416C1108.01 189.583 1106.46 189 1104.67 189H1104.63C1102.06 189 1099.64 190.028 1097.83 191.768C1096.93 192.63 1096.22 193.663 1095.74 194.805C1095.25 195.948 1095 197.176 1095 198.418V198.791C1095 203.948 1099.28 208.131 1104.61 208.131C1106.29 208.131 1107.94 207.687 1109.39 206.844V218H1114V189.268H1109.39V190.416ZM1156.65 197.094L1153.71 196.158C1152.7 195.811 1151.88 195.262 1151.93 194.528C1152.01 193.151 1153.15 192.795 1154.29 192.868C1155.15 192.923 1156.16 193.338 1156.49 194.244L1160.43 192.301C1159.32 190.16 1156.88 189.173 1154.42 189.016C1150.86 188.788 1147.68 191.081 1147.5 193.998C1147.37 196.138 1147.65 198.309 1152.21 199.885L1154.63 200.675C1155.9 201.067 1156.57 201.581 1156.47 202.512C1156.4 203.565 1155.33 204.242 1154.02 204.199C1152.49 204.165 1151.23 203.234 1150.93 202.129L1147 204.06C1148.07 206.407 1150.68 207.807 1153.33 207.977C1157.03 208.215 1160.76 206.54 1160.99 202.847C1161.08 201.397 1160.73 198.447 1156.65 197.093V197.094ZM1069.95 180H1068.22C1065.76 180 1063.44 181.072 1061.7 182.853C1059.96 184.611 1059 186.921 1059 189.563H1063.61C1063.61 188.196 1064.1 187.16 1064.97 186.269C1065.4 185.837 1065.9 185.495 1066.46 185.263C1067.02 185.031 1067.62 184.914 1068.22 184.918H1069.88V198.634C1069.88 203.806 1073.91 208 1079.21 208V203.326C1076.43 203.326 1074.36 201.218 1074.36 198.634V184.918H1081V180H1069.95ZM1123.98 189C1119.31 189 1115 192.722 1115 198.43C1115 204.467 1119.42 208 1124.43 208C1128.11 208 1130.72 206.264 1132.05 203.932L1128.15 202.076C1127.44 203.151 1126.28 203.85 1124.46 203.85C1122.01 203.85 1119.97 201.986 1119.86 199.767H1132.93C1132.93 199.767 1133 198.978 1133 198.287C1133 192.543 1129.62 189 1123.98 189ZM1137.43 198.591C1137.43 203.228 1141.25 207 1145.96 207V202.524C1143.76 202.524 1141.97 200.774 1141.97 198.591H1141.96V192.766H1146V188.913H1141.96V183H1137.43V188.913H1134V192.766H1137.43V198.591H1137.43ZM1109.47 198.791C1109.47 200.035 1108.9 201.211 1107.99 202.081C1107.09 202.976 1105.99 203.459 1104.7 203.459C1102.03 203.459 1099.98 201.369 1099.98 198.791V198.418C1099.98 197.179 1100.42 196.002 1101.33 195.126C1102.22 194.244 1103.43 193.745 1104.68 193.736C1107.33 193.746 1109.45 195.782 1109.45 198.369L1109.47 198.791H1109.47ZM1119.97 196.482C1120.08 194.707 1121.49 192.955 1124.06 192.955C1126.88 192.955 1128.06 194.707 1128.14 196.482H1119.97Z" fill="#B2B2B2"/>
<path fill-rule="evenodd" clip-rule="evenodd" d="M1170.55 290.242C1170.4 290.123 1170.25 290.038 1170.12 290.032C1169.29 290.003 1168.47 289.994 1167.65 290.007C1166.82 290.015 1165.96 290.032 1165.07 290.032C1165.12 290.119 1165.17 290.202 1165.22 290.279C1165.45 290.646 1165.61 290.915 1165.79 291.171C1167.22 293.213 1168.63 295.277 1170.12 297.276C1170.53 297.836 1170.58 298.252 1170.33 298.732C1170.26 298.869 1170.18 299.001 1170.08 299.124C1169.64 299.716 1169.21 300.314 1168.78 300.914C1167.94 302.086 1167.13 303.269 1166.3 304.444C1165.87 305.042 1165.46 305.644 1164.89 306.449C1165.7 306.449 1166.43 306.433 1167.12 306.429C1167.69 306.423 1168.27 306.436 1168.84 306.468C1169.24 306.493 1169.56 306.438 1169.84 306.298C1170.15 306.138 1170.4 305.861 1170.63 305.461C1170.89 305.005 1171.17 304.557 1171.45 304.106C1172 303.224 1172.6 302.336 1173.21 301.374C1174.25 302.936 1175.13 304.291 1176.05 305.624C1176.26 305.93 1176.57 306.377 1176.86 306.39C1177.68 306.424 1178.51 306.439 1179.34 306.436C1180.18 306.436 1181.06 306.426 1182 306.426C1180.13 303.766 1178.45 301.334 1176.71 298.936C1176.48 298.62 1176.37 298.358 1176.39 298.087C1176.41 297.87 1176.5 297.647 1176.7 297.386C1177.57 296.188 1178.44 294.981 1179.29 293.764L1180.07 292.639L1181.16 291.089C1181.27 290.927 1181.38 290.76 1181.5 290.571C1181.6 290.411 1181.71 290.234 1181.85 290.029C1180.3 290.029 1178.99 290.074 1177.69 290.011C1177.4 289.997 1177.16 290.038 1176.96 290.131C1176.69 290.262 1176.48 290.498 1176.28 290.831C1175.92 291.443 1175.54 292.05 1175.16 292.651C1174.7 293.381 1174.21 294.137 1173.69 294.962C1173.51 294.692 1173.34 294.425 1173.17 294.162C1172.54 293.168 1171.97 292.23 1171.37 291.326C1171.24 291.119 1171.1 290.914 1170.96 290.71C1170.84 290.537 1170.7 290.38 1170.55 290.242ZM1112.38 301.628C1112 301.729 1111.66 301.946 1111.33 302.363L1111.28 302.42C1110.36 303.501 1108.21 303.732 1106.81 303.062C1106.47 302.9 1106.17 302.682 1105.9 302.417C1105.48 301.996 1105.17 301.484 1104.99 300.92C1104.81 300.357 1104.76 299.759 1104.85 299.174H1116.85C1117.05 295.911 1116.53 293.031 1113.73 291.094C1108.1 287.197 1100.34 290.63 1099.63 297.387C1099.41 299.502 1099.71 301.471 1100.6 303.058C1101.51 304.678 1103.03 305.898 1105.24 306.472C1107.31 307.009 1109.4 307.046 1111.46 306.47C1112.52 306.174 1113.47 305.756 1114.28 305.155C1115.37 304.342 1116.2 303.195 1116.68 301.562C1115.82 301.562 1115.07 301.574 1114.35 301.572C1113.98 301.571 1113.62 301.565 1113.26 301.553C1112.96 301.535 1112.67 301.561 1112.38 301.628ZM1071.63 283.434C1075.02 287.058 1077.11 291.924 1077.06 297.26C1076.96 308.18 1068.11 317.013 1057.11 316.999C1046.11 317.122 1036.94 307.869 1037 296.832C1037.04 289.962 1040.57 283.987 1045.82 280.438C1049.12 278.193 1053.02 276.995 1057.02 277C1062.71 277.013 1067.94 279.488 1071.63 283.434H1071.63ZM1087.95 290.086V306.344H1092.73C1092.73 305.77 1092.72 305.302 1092.73 304.834C1092.75 302.538 1092.68 300.238 1092.81 297.949C1092.99 294.822 1095.02 293.457 1098.01 294.313C1098.12 294.343 1098.24 294.35 1098.42 294.38C1098.62 293.44 1098.82 292.52 1099 291.597C1099.29 290.101 1099.17 289.924 1097.66 289.711C1097.31 289.669 1096.95 289.659 1096.6 289.682C1094.82 289.764 1093.65 290.802 1092.6 292.489L1092.47 290.086H1087.95ZM1158.09 306.334H1162.86V290.086H1158.09V306.334ZM1149.92 305.65C1150.14 305.974 1150.53 306.388 1150.86 306.404C1152.51 306.481 1154.16 306.439 1156.07 306.439L1149.36 296.593L1155.5 290.029C1154.39 290.029 1153.59 290.129 1152.83 290.009C1150.73 289.683 1149.24 290.423 1148 292.135C1146.95 293.577 1145.63 294.818 1144.43 296.149L1144.16 296.025V281.849H1139.31V306.369H1144.13C1144.38 304.155 1143.41 301.58 1146.25 300.237C1147.44 302.008 1148.66 303.844 1149.92 305.65ZM1132.12 306.349V304.344C1131.29 305.006 1130.62 305.742 1129.79 306.171C1126.26 307.998 1121.63 306.401 1120.02 302.775C1118.71 299.806 1118.74 296.753 1120.11 293.806C1121.6 290.591 1125.25 288.881 1128.65 289.896C1129.87 290.259 1130.92 291.188 1131.97 291.818V281.85L1136.21 281.828V306.328L1132.12 306.348V306.349ZM1157.9 286.05H1162.95V281.846H1157.9V286.051V286.05ZM1068.21 303.79C1069.1 304.026 1070.06 304.022 1071.17 304.142C1070.91 304.643 1070.73 305.066 1070.49 305.444C1066.84 311.05 1060.75 313.524 1055.04 312.772C1047.94 311.839 1042.87 306.732 1041.45 300.27C1039.53 291.502 1045.55 282.893 1054.68 281.32C1064.01 279.712 1072.99 287.252 1072.95 296.654C1072.94 298.606 1071.83 299.853 1070.08 299.874C1068.36 299.894 1067.19 298.671 1067.08 296.734C1066.81 291.734 1063.63 288.091 1058.67 287.08C1053.02 285.93 1047.2 290.639 1046.97 296.387C1046.78 301.135 1049.69 305.037 1053.6 306.48C1057.73 308.003 1062.1 306.706 1065.08 303.07C1065.2 302.918 1065.31 302.753 1065.41 302.62C1066.47 303.075 1067.31 303.551 1068.21 303.79ZM1056.95 302.88C1053.76 302.852 1051.11 300.117 1051.16 296.905C1051.21 293.714 1053.94 291.073 1057.15 291.108C1060.34 291.143 1062.98 293.87 1062.94 297.091C1062.9 300.279 1060.19 302.907 1056.95 302.879L1056.95 302.88ZM1123.82 301.232C1124.35 302.508 1125.42 303.184 1126.8 303.254C1128.17 303.323 1129.25 302.749 1130.01 301.583C1131.19 299.753 1131.15 296.58 1129.93 294.806C1128.48 292.704 1125.46 292.682 1124.17 294.878C1123.57 295.896 1123.37 297.143 1123.01 298.217C1123.3 299.348 1123.45 300.336 1123.82 301.232ZM1104.95 296.3C1104.99 294.267 1106.47 292.949 1108.59 293.004C1110.54 293.054 1111.69 294.28 1111.63 296.3H1104.95Z" fill="#B2B2B2"/>
<path fill-rule="evenodd" clip-rule="evenodd" d="M1319.1 99.8C1319.1 106.6 1324.57 112.2 1331.43 112.2C1335.31 112.2 1338.69 110.4 1340.98 107.6C1341.87 108.7 1343.46 110.9 1343.76 111.5C1343.76 111.5 1345.55 108.8 1346.54 107.6C1348.83 110.4 1352.21 112.2 1356.09 112.2C1362.85 112.2 1368.42 106.7 1368.42 99.8C1368.42 97.1 1367.52 94.6 1366.03 92.5C1366.23 91.1 1367.23 89.1 1368.52 87.6H1360.26C1356.09 84.8 1350.32 83 1343.76 83C1337.2 83 1331.03 84.8 1326.86 87.6H1319C1320.29 89.1 1321.19 91.1 1321.49 92.5C1319.99 94.6 1319.1 97.1 1319.1 99.8ZM1366.03 99.8C1366.03 105.3 1361.56 109.8 1356.09 109.8C1350.62 109.8 1346.15 105.3 1346.15 99.8C1346.15 94.3 1350.62 89.8 1356.09 89.8C1361.56 89.9 1366.03 94.3 1366.03 99.8ZM1343.76 85.1C1348.13 85.1 1352.21 85.9 1355.69 87.5C1349.03 87.7 1343.76 93.2 1343.76 99.9C1343.76 93.1 1338.29 87.5 1331.43 87.5C1335.01 85.9 1339.38 85.1 1343.76 85.1ZM1331.43 89.9C1336.9 89.9 1341.37 94.4 1341.37 99.9C1341.37 105.4 1336.9 109.9 1331.43 109.9C1325.96 109.9 1321.49 105.4 1321.49 99.9C1321.59 94.3 1325.96 89.9 1331.43 89.9ZM1356.09 105.8C1359.37 105.8 1362.06 103.1 1362.06 99.8C1362.06 96.5 1359.37 93.8 1356.09 93.8C1352.81 93.8 1350.12 96.5 1350.12 99.8C1350.12 103.1 1352.81 105.8 1356.09 105.8ZM1331.33 105.8C1334.61 105.8 1337.3 103.1 1337.3 99.8C1337.3 96.5 1334.61 93.8 1331.33 93.8C1328.05 93.8 1325.36 96.5 1325.36 99.8C1325.36 103.1 1328.05 105.8 1331.33 105.8ZM1331.33 95.6C1333.62 95.6 1335.51 97.5 1335.51 99.8C1335.51 102.1 1333.62 104 1331.33 104C1329.04 104 1327.15 102.1 1327.15 99.8C1327.15 97.5 1329.04 95.6 1331.33 95.6ZM1356.09 95.6C1358.38 95.6 1360.26 97.5 1360.26 99.8C1360.26 102.1 1358.38 104 1356.09 104C1353.8 104 1351.91 102.1 1351.91 99.8C1351.91 97.5 1353.8 95.6 1356.09 95.6ZM1331.03 101.8C1331.56 101.8 1332.07 101.589 1332.45 101.214C1332.82 100.839 1333.03 100.33 1333.03 99.8C1333.03 99.2696 1332.82 98.7609 1332.45 98.3858C1332.07 98.0107 1331.56 97.8 1331.03 97.8C1330.5 97.8 1329.99 98.0107 1329.62 98.3858C1329.24 98.7609 1329.03 99.2696 1329.03 99.8C1329.03 100.33 1329.24 100.839 1329.62 101.214C1329.99 101.589 1330.5 101.8 1331.03 101.8ZM1355.79 101.8C1356.32 101.8 1356.83 101.589 1357.21 101.214C1357.58 100.839 1357.79 100.33 1357.79 99.8C1357.79 99.2696 1357.58 98.7609 1357.21 98.3858C1356.83 98.0107 1356.32 97.8 1355.79 97.8C1355.26 97.8 1354.75 98.0107 1354.38 98.3858C1354 98.7609 1353.79 99.2696 1353.79 99.8C1353.79 100.33 1354 100.839 1354.38 101.214C1354.75 101.589 1355.26 101.8 1355.79 101.8ZM1390.75 89.941L1388.12 90.725V93.078H1386.1V95.275H1388.12V102.02C1388.12 105 1389.36 106.569 1391.84 106.569C1392.77 106.569 1393.38 106.412 1394 106.255L1393.85 104.215H1393.69C1393.38 104.373 1392.92 104.373 1392.3 104.373C1391.68 104.373 1391.22 104.216 1391.06 103.745C1390.75 103.431 1390.6 102.804 1390.6 101.863V95.118H1394V92.922H1390.6V89.942H1390.75V89.941ZM1402.52 92.765C1401.75 92.765 1400.97 93.078 1400.2 93.549C1399.58 94.019 1399.11 94.49 1398.8 95.275L1398.65 93.078H1396.33V93.235C1396.33 94.333 1396.48 95.745 1396.48 97.314V106.254H1399.11V99.196C1399.11 97.941 1399.42 97 1400.04 96.216C1400.66 95.588 1401.44 95.118 1402.21 95.118H1403.14V92.45H1402.99C1402.99 92.764 1402.68 92.764 1402.52 92.764V92.765ZM1405.62 93.078H1408.25V106.255H1405.62V93.078ZM1407.01 87.588C1406.55 87.588 1406.08 87.745 1405.77 88.058C1405.46 88.373 1405.31 88.843 1405.31 89.314C1405.31 89.784 1405.47 90.254 1405.78 90.569C1406.08 90.882 1406.55 91.039 1407.01 91.039C1407.48 91.039 1407.94 90.882 1408.25 90.569C1408.56 90.255 1408.72 89.784 1408.72 89.314C1408.72 88.844 1408.56 88.373 1408.25 88.059C1407.94 87.745 1407.48 87.589 1407.01 87.589L1407.01 87.588ZM1417.55 92.765C1415.69 92.765 1414.14 93.549 1413.06 94.961L1412.9 92.921H1410.42V93.078C1410.42 94.176 1410.58 95.588 1410.58 97.314V111.588H1413.21V104.843C1413.52 105.313 1413.99 105.784 1414.61 106.098C1415.38 106.412 1416.15 106.725 1416.93 106.725C1418.63 106.725 1420.03 106.098 1421.11 104.686C1422.19 103.431 1422.81 101.549 1422.81 99.51C1422.81 97.627 1422.35 95.902 1421.27 94.647C1420.49 93.392 1419.1 92.765 1417.55 92.765H1417.55ZM1434.9 103.118V98.412C1434.9 96.686 1434.43 95.275 1433.66 94.333C1432.73 93.393 1431.49 92.922 1429.78 92.922C1428.08 92.922 1426.53 93.392 1425.29 94.176L1425.91 96.059H1426.07C1427 95.431 1428.23 95.118 1429.47 95.118C1430.4 95.118 1431.18 95.431 1431.64 95.902C1432.11 96.372 1432.42 97.157 1432.42 97.942V98.098C1429.78 98.098 1427.93 98.568 1426.53 99.353C1425.14 100.137 1424.52 101.393 1424.52 103.118C1424.52 104.216 1424.83 105.157 1425.6 105.784C1426.38 106.569 1427.31 106.882 1428.54 106.882C1430.25 106.882 1431.64 106.255 1432.57 105L1432.88 106.569H1435.36V106.412C1434.9 105.471 1434.9 104.372 1434.9 103.118ZM1448.52 102.804V86.96H1445.89V94.49C1445.58 94.019 1445.12 93.705 1444.5 93.391C1443.72 93.077 1442.95 92.764 1442.18 92.764C1440.47 92.764 1439.08 93.391 1437.99 94.803C1436.91 96.058 1436.29 97.94 1436.29 99.979C1436.29 101.862 1436.75 103.587 1437.84 104.842C1438.92 106.097 1440.32 106.724 1441.87 106.724C1442.8 106.724 1443.72 106.411 1444.5 105.94C1445.12 105.626 1445.58 104.999 1446.05 104.372L1446.2 106.254H1448.68V106.097C1448.68 105.47 1448.53 104.215 1448.53 102.803L1448.52 102.804ZM1456.11 100.764C1455.8 99.824 1452.4 93.078 1452.4 93.078H1449.46L1455.96 106.255L1462.47 93.078H1459.52C1459.68 93.078 1456.43 100.138 1456.12 100.765L1456.11 100.764ZM1463.86 93.078H1466.49V106.255H1463.86V93.078ZM1465.25 87.588C1464.79 87.588 1464.32 87.745 1464.01 88.058C1463.71 88.373 1463.55 88.843 1463.55 89.314C1463.55 89.784 1463.71 90.254 1464.01 90.569C1464.32 90.882 1464.79 91.039 1465.25 91.039C1465.72 91.039 1466.18 90.882 1466.49 90.569C1466.8 90.255 1466.96 89.784 1466.96 89.314C1466.96 88.844 1466.8 88.373 1466.49 88.059C1466.18 87.745 1465.72 87.589 1465.25 87.589L1465.25 87.588ZM1474.55 98.568C1473.62 98.255 1472.84 97.941 1472.53 97.628C1472.22 97.314 1472.07 97 1472.07 96.529C1472.07 96.059 1472.22 95.589 1472.53 95.275C1472.84 94.961 1473.46 94.804 1474.08 94.804C1475.01 94.804 1475.94 95.118 1476.87 95.588H1477.03L1477.65 93.549C1476.72 93.079 1475.63 92.765 1474.24 92.765C1472.84 92.765 1471.6 93.078 1470.83 93.863C1469.9 94.647 1469.59 95.588 1469.59 96.686C1469.59 98.412 1470.83 99.666 1473.15 100.451C1474.08 100.765 1474.7 101.078 1475.01 101.392C1475.32 101.706 1475.48 102.176 1475.48 102.647C1475.48 103.117 1475.32 103.588 1474.86 103.902C1474.39 104.216 1473.77 104.372 1473.15 104.372C1472.07 104.372 1470.99 104.059 1469.9 103.432H1469.75L1469.13 105.627H1469.28C1470.37 106.255 1471.76 106.569 1473.15 106.569C1474.7 106.569 1475.94 106.255 1476.87 105.471C1477.8 104.686 1478.27 103.745 1478.27 102.491C1478.27 101.549 1477.96 100.765 1477.49 100.137C1476.72 99.667 1475.79 99.039 1474.55 98.569V98.568ZM1485.86 92.765C1484 92.765 1482.45 93.392 1481.21 94.647C1479.97 95.902 1479.35 97.627 1479.35 99.824C1479.35 101.863 1479.97 103.431 1481.05 104.686C1482.29 105.941 1483.69 106.569 1485.55 106.569C1486.63 106.569 1487.87 106.255 1488.8 105.627C1489.73 105 1490.66 104.216 1491.12 103.117C1491.74 102.02 1491.9 100.765 1491.9 99.353C1491.9 97.313 1491.28 95.745 1490.19 94.49C1489.26 93.392 1487.71 92.765 1485.86 92.765ZM1500.42 92.765C1499.64 92.765 1498.87 93.078 1498.09 93.549C1497.47 94.019 1497.01 94.49 1496.7 95.275L1496.54 93.078H1494.38V106.254H1497.01V99.196C1497.01 97.941 1497.32 97 1497.94 96.216C1498.56 95.588 1499.33 95.118 1500.11 95.118H1501.03V92.45H1500.88C1500.88 92.764 1500.57 92.764 1500.42 92.764V92.765ZM1432.26 101.863C1432.26 102.647 1431.95 103.275 1431.33 103.745C1430.71 104.373 1429.94 104.529 1429.01 104.529C1428.39 104.529 1427.93 104.373 1427.46 103.902C1427.15 103.588 1426.84 102.961 1426.84 102.333C1426.84 101.549 1427.15 100.765 1427.93 100.294C1428.7 99.824 1430.09 99.51 1432.11 99.51V101.863H1432.26ZM1445.89 100.608C1445.89 101.706 1445.58 102.648 1444.96 103.275C1444.34 103.902 1443.57 104.215 1442.64 104.215C1441.56 104.215 1440.63 103.745 1440.01 102.961C1439.39 102.02 1439.08 100.921 1439.08 99.667C1439.08 98.255 1439.39 97.157 1440.01 96.216C1440.63 95.275 1441.56 94.961 1442.64 94.961C1443.57 94.961 1444.34 95.275 1444.96 95.902C1445.58 96.529 1445.89 97.471 1445.89 98.412V100.608H1445.89ZM1419.25 103.118C1418.63 103.902 1417.7 104.373 1416.62 104.373C1415.69 104.373 1414.91 104.059 1414.29 103.431C1413.67 102.804 1413.36 101.863 1413.36 100.921V98.882C1413.36 98.569 1413.52 97.942 1413.67 97.314C1413.83 96.686 1414.29 96.216 1414.91 95.745C1415.44 95.3305 1416.1 95.1093 1416.77 95.118C1417.86 95.118 1418.63 95.588 1419.41 96.373C1420.03 97.157 1420.34 98.255 1420.34 99.667C1420.34 101.078 1420.03 102.333 1419.25 103.117V103.118ZM1488.33 103.275C1487.56 104.215 1486.78 104.686 1485.7 104.686C1484.62 104.686 1483.84 104.216 1483.07 103.275C1482.29 102.333 1481.98 101.235 1481.98 99.824C1481.98 98.412 1482.29 97.314 1483.07 96.373C1483.69 95.431 1484.62 94.961 1485.86 94.961C1486.94 94.961 1487.87 95.431 1488.49 96.373C1489.11 97.313 1489.42 98.412 1489.42 99.823C1489.42 101.078 1489.11 102.333 1488.33 103.275Z" fill="#B2B2B2"/>
<path fill-rule="evenodd" clip-rule="evenodd" d="M1340.37 192.913C1336.57 192.913 1333.27 194.278 1331.35 196.56V182H1323V213.909H1331.35V208.756C1331.35 203.566 1333.63 200.591 1337.6 200.591C1340.33 200.591 1341.89 201.623 1342.53 203.839C1342.94 205.282 1343.02 207.144 1343.02 209.678V213.908H1351.37V207.77C1351.37 202.044 1350.83 199.33 1349.21 197.003C1347.21 194.252 1344.32 192.913 1340.37 192.913ZM1350.13 195.27C1350.61 195.963 1351.01 196.682 1351.33 197.475V182.012H1342.98V190.926C1346.01 191.43 1348.37 192.854 1350.13 195.27ZM1371.84 207.474H1368.81V190.304H1371.84V197.247H1379.51V190.303H1382.53V207.473H1379.46L1379.51 199.949H1371.84V207.474ZM1390.85 195.176C1394.51 195.176 1396.85 197.651 1396.85 201.514C1396.85 205.353 1394.53 207.776 1390.85 207.776C1387.17 207.776 1384.85 205.353 1384.85 201.514C1384.85 197.651 1387.19 195.176 1390.85 195.176ZM1405.45 207.576C1404.89 207.702 1404.16 207.777 1403.31 207.777C1402.15 207.777 1400.94 207.55 1400.28 206.743C1399.8 206.163 1399.78 205.479 1399.78 204.319V197.702H1397.21V195.454H1399.78V191.264L1402.65 190.631V195.454H1405.45V197.702H1402.65V203.838C1402.65 204.52 1402.75 204.848 1402.98 205.076C1403.2 205.327 1403.68 205.404 1404.19 205.404C1404.69 205.404 1405.15 205.354 1405.45 205.304V207.576ZM1417.96 204.748C1417.43 205.581 1415.81 207.776 1412.31 207.776C1408.75 207.776 1406.33 205.252 1406.33 201.364C1406.33 197.653 1408.88 195.177 1412.23 195.177C1416.06 195.177 1417.9 197.827 1417.9 201.515C1417.9 201.717 1417.88 202.045 1417.88 202.247H1409.13C1409.33 203.889 1410.34 205.302 1412.46 205.302C1414.63 205.302 1415.58 203.838 1415.96 203.232L1417.96 204.748ZM1420.12 207.475H1423V190.302H1420.12V207.474V207.475ZM1433.91 199.823C1433.49 198.536 1432.58 197.652 1431.12 197.652C1429.2 197.652 1427.99 199.066 1427.99 201.465C1427.99 203.864 1429.22 205.277 1431.12 205.277C1432.75 205.277 1433.56 204.319 1433.99 203.232L1436.31 204.47C1435.75 205.757 1434.12 207.777 1431.04 207.777C1427.56 207.777 1425.14 205.555 1425.14 201.515C1425.14 197.475 1427.74 195.177 1431.04 195.177C1433.84 195.177 1435.58 196.666 1436.31 198.562L1433.91 199.823ZM1448.66 207.475H1445.79V201.39C1445.79 200.48 1445.76 199.697 1445.59 199.093C1445.34 198.233 1444.71 197.703 1443.47 197.703C1441.68 197.703 1440.82 199.093 1440.82 201.035V207.475H1437.95V190.304H1440.82V196.994C1441.38 195.934 1442.74 195.15 1444.55 195.15C1445.92 195.15 1447.05 195.555 1447.86 196.64C1448.41 197.424 1448.66 198.333 1448.66 200.656V207.474L1448.66 207.475ZM1460.97 204.723C1460.97 205.481 1461.07 205.732 1461.75 205.732H1461.9V207.627C1461.75 207.65 1461.37 207.753 1460.54 207.753C1459.43 207.753 1458.65 207.448 1458.42 206.515H1458.4C1457.92 207.07 1456.96 207.803 1454.82 207.803C1452.5 207.803 1450.58 206.641 1450.58 204.015C1450.58 203.105 1450.83 202.425 1451.26 201.895C1451.99 201.01 1453.25 200.531 1454.82 200.253L1457.46 199.799C1458.09 199.672 1458.22 199.62 1458.22 199.167V198.965C1458.22 197.955 1457.56 197.451 1456.08 197.451C1454.46 197.451 1453.63 198.131 1453.65 199.545L1450.96 199.369C1450.91 196.414 1453.33 195.229 1456.2 195.229C1458.95 195.229 1460.97 196.111 1460.97 198.762V204.722V204.723ZM1474 197.02C1474.73 196.138 1475.94 195.152 1478.11 195.152C1479.65 195.152 1480.66 195.607 1481.29 196.314C1482.04 197.171 1482.35 198.004 1482.35 200.657V207.475H1479.47V201.386C1479.47 199.216 1479.32 197.701 1477.15 197.701C1475.36 197.701 1474.56 199.091 1474.56 201.034V207.473H1471.68V201.386C1471.68 199.216 1471.53 197.701 1469.36 197.701C1467.6 197.701 1466.77 199.091 1466.77 201.034V207.473H1463.89V195.453H1466.77V196.992C1467.35 195.984 1468.63 195.15 1470.52 195.15C1471.76 195.15 1472.79 195.528 1473.5 196.312C1473.7 196.538 1473.85 196.766 1474 197.018V197.02ZM1488.05 206.212V212.272H1485.17V195.454H1488.05V196.767C1488.7 195.907 1490.01 195.151 1491.58 195.151C1494.83 195.151 1496.9 197.778 1496.9 201.514C1496.9 205.125 1494.78 207.776 1491.58 207.776C1489.96 207.776 1488.8 207.146 1488.05 206.211V206.212ZM1390.85 205.303C1392.69 205.303 1394 203.837 1394 201.465C1394 199.041 1392.74 197.626 1390.85 197.626C1388.96 197.626 1387.7 199.066 1387.7 201.465C1387.7 203.864 1389.01 205.303 1390.85 205.303ZM1409.21 200.101H1415.05C1414.98 198.536 1413.84 197.474 1412.23 197.474C1410.59 197.474 1409.28 198.663 1409.21 200.101ZM1458.22 203.206V201.743C1457.79 201.895 1457.44 201.996 1456.58 202.171L1455.47 202.399C1454.11 202.677 1453.51 203.03 1453.51 203.989C1453.51 204.974 1454.16 205.633 1455.57 205.633C1457.13 205.633 1458.22 204.848 1458.22 203.206ZM1490.97 205.277C1492.81 205.277 1494.02 203.837 1494.02 201.465C1494.02 199.041 1492.81 197.626 1490.97 197.626C1489.15 197.626 1487.92 199.141 1487.92 201.465C1487.92 203.788 1489.15 205.277 1490.97 205.277Z" fill="#B2B2B2"/>
<path fill-rule="evenodd" clip-rule="evenodd" d="M1371.73 291.773H1364V323.147H1372.36C1372.36 323.147 1372.36 306.769 1372.15 305.599C1372.15 305.599 1376.66 312.601 1384.38 323.14H1391.43V291.792H1383.13C1383.13 291.792 1383.26 306.816 1383.35 308.296C1383.35 308.296 1381.12 304.08 1371.73 291.773Z" fill="#B2B2B2"/>
<path opacity="0.6" fill-rule="evenodd" clip-rule="evenodd" d="M1412.17 279.312C1407.71 279.312 1404.1 282.939 1404.1 287.414C1404.1 291.889 1407.71 295.516 1412.17 295.516C1416.62 295.516 1420.23 291.889 1420.23 287.414C1420.23 282.939 1416.62 279.312 1412.17 279.312ZM1428.62 287.444C1428.62 296.526 1421.3 303.888 1412.26 303.888C1403.22 303.888 1395.89 296.526 1395.89 287.444C1395.89 278.362 1403.22 271 1412.26 271C1421.3 271 1428.62 278.362 1428.62 287.444Z" fill="#B2B2B2"/>
<path fill-rule="evenodd" clip-rule="evenodd" d="M1456.53 274.947L1452.31 281.823C1452.31 281.823 1448.74 278.833 1443.68 278.833C1440.11 278.833 1440.44 280.478 1440.44 280.717C1440.44 280.957 1440.12 282.287 1446.3 283.617C1452.44 284.94 1456.95 287.175 1456.89 293.782C1456.83 300.24 1451.95 303.709 1443.92 303.709C1435.88 303.709 1430.94 299.822 1430.94 299.822L1435.05 293.065C1435.05 293.065 1439.22 296.098 1444.45 296.175C1448.56 296.235 1448.32 294.38 1448.32 294.38C1448.32 292.826 1446.42 291.928 1440.76 290.733C1435.11 289.537 1431.72 286.607 1431.72 281.763C1431.72 276.591 1434.83 271.271 1444.05 271.254C1452.03 271.239 1456.53 274.947 1456.53 274.947Z" fill="#B2B2B2"/>
<path fill-rule="evenodd" clip-rule="evenodd" d="M474.266 305.796V290.066H484.364V292.86H477.83V297.018H483V299.702H477.83V305.796H474.266ZM486.542 305.796V289.076H489.71V305.796H486.542ZM492.702 305.796V294.29H495.87V305.796H492.702ZM494.264 292.728C493.751 292.728 493.322 292.563 492.977 292.233C492.632 291.903 492.46 291.489 492.46 290.99C492.46 290.492 492.632 290.077 492.977 289.747C493.322 289.417 493.751 289.252 494.264 289.252C494.777 289.252 495.21 289.417 495.562 289.747C495.914 290.077 496.09 290.492 496.09 290.99C496.09 291.489 495.914 291.903 495.562 292.233C495.21 292.563 494.777 292.728 494.264 292.728ZM502.998 306.016C501.781 306.016 500.857 305.708 500.226 305.092C499.596 304.476 499.28 303.574 499.28 302.386V296.556H497.806V294.29H499.28V291.804H502.448V294.29H504.868V296.556H502.448V302.1C502.448 303.01 502.873 303.464 503.724 303.464C504.179 303.464 504.582 303.391 504.934 303.244V305.708C504.311 305.919 503.656 306.023 502.998 306.016ZM511.511 306.038C509.956 306.038 508.746 305.708 507.881 305.048C507.015 304.388 506.553 303.435 506.495 302.188H509.465C509.538 302.731 509.729 303.138 510.037 303.409C510.345 303.681 510.829 303.816 511.489 303.816C512.691 303.816 513.293 303.398 513.293 302.562C513.293 302.181 513.117 301.888 512.765 301.682C512.413 301.477 511.811 301.316 510.961 301.198C509.406 300.964 508.31 300.582 507.671 300.054C507.034 299.526 506.715 298.712 506.715 297.612C506.715 296.468 507.158 295.585 508.045 294.962C508.933 294.338 510.007 294.026 511.269 294.026C514.173 294.026 515.757 295.214 516.021 297.59H513.095C512.919 296.666 512.317 296.204 511.291 296.204C510.777 296.204 510.378 296.314 510.091 296.534C509.806 296.754 509.663 297.04 509.663 297.392C509.663 297.759 509.82 298.03 510.136 298.206C510.451 298.382 511.034 298.529 511.885 298.646C513.439 298.866 514.572 299.233 515.284 299.746C515.994 300.26 516.351 301.096 516.351 302.254C516.351 303.486 515.929 304.425 515.086 305.07C514.242 305.716 513.051 306.038 511.511 306.038ZM518.375 305.796V294.29H521.565V296.05C521.873 295.464 522.335 294.98 522.951 294.598C523.567 294.217 524.278 294.026 525.085 294.026C526.683 294.026 527.754 294.694 528.297 296.028C529.191 294.694 530.482 294.026 532.169 294.026C533.298 294.026 534.211 294.393 534.908 295.126C535.604 295.86 535.953 296.96 535.953 298.426V305.796H532.785V298.778C532.785 297.356 532.183 296.644 530.981 296.644C530.335 296.644 529.804 296.85 529.386 297.26C528.968 297.671 528.759 298.25 528.759 298.998V305.796H525.591V298.778C525.591 297.356 524.989 296.644 523.787 296.644C523.141 296.644 522.61 296.85 522.192 297.26C521.774 297.671 521.565 298.25 521.565 298.998V305.796H518.375ZM543.983 306.038C542.208 306.038 540.763 305.514 539.649 304.465C538.534 303.417 537.977 301.99 537.977 300.186V300.01C537.977 298.221 538.537 296.776 539.66 295.676C540.782 294.576 542.193 294.026 543.895 294.026C545.508 294.026 546.846 294.518 547.91 295.5C548.973 296.483 549.505 297.942 549.505 299.878V300.758H541.211C541.255 301.712 541.526 302.452 542.025 302.98C542.523 303.508 543.205 303.772 544.071 303.772C545.449 303.772 546.249 303.237 546.469 302.166H549.483C549.292 303.413 548.72 304.37 547.767 305.037C546.813 305.705 545.552 306.038 543.983 306.038ZM541.255 298.8H546.403C546.3 297.084 545.463 296.226 543.895 296.226C543.175 296.226 542.585 296.45 542.124 296.897C541.662 297.345 541.372 297.979 541.254 298.8H541.255ZM551.683 305.796V294.29H554.851V305.796H551.683ZM553.245 292.728C552.731 292.728 552.302 292.563 551.958 292.233C551.613 291.903 551.441 291.489 551.441 290.99C551.441 290.492 551.613 290.077 551.958 289.747C552.302 289.417 552.731 289.252 553.245 289.252C553.758 289.252 554.191 289.417 554.543 289.747C554.895 290.077 555.071 290.492 555.071 290.99C555.071 291.489 554.895 291.903 554.543 292.233C554.191 292.563 553.758 292.728 553.245 292.728ZM561.957 306.038C560.402 306.038 559.192 305.708 558.327 305.048C557.461 304.388 556.999 303.435 556.941 302.188H559.911C559.984 302.731 560.175 303.138 560.483 303.409C560.791 303.681 561.275 303.816 561.935 303.816C563.137 303.816 563.739 303.398 563.739 302.562C563.739 302.181 563.563 301.888 563.211 301.682C562.859 301.477 562.257 301.316 561.407 301.198C559.852 300.964 558.756 300.582 558.117 300.054C557.48 299.526 557.161 298.712 557.161 297.612C557.161 296.468 557.604 295.585 558.491 294.962C559.379 294.338 560.453 294.026 561.715 294.026C564.619 294.026 566.203 295.214 566.467 297.59H563.541C563.365 296.666 562.763 296.204 561.737 296.204C561.223 296.204 560.824 296.314 560.537 296.534C560.252 296.754 560.109 297.04 560.109 297.392C560.109 297.759 560.266 298.03 560.582 298.206C560.897 298.382 561.48 298.529 562.331 298.646C563.885 298.866 565.018 299.233 565.73 299.746C566.44 300.26 566.797 301.096 566.797 302.254C566.797 303.486 566.375 304.425 565.532 305.07C564.688 305.716 563.497 306.038 561.957 306.038ZM573.023 306.016C571.805 306.016 570.881 305.708 570.251 305.092C569.62 304.476 569.305 303.574 569.305 302.386V296.556H567.831V294.29H569.305V291.804H572.473V294.29H574.893V296.556H572.473V302.1C572.473 303.01 572.898 303.464 573.749 303.464C574.163 303.472 574.574 303.397 574.959 303.244V305.708C574.336 305.919 573.681 306.023 573.023 306.016ZM582.417 306.038C580.642 306.038 579.197 305.514 578.083 304.465C576.968 303.417 576.411 301.99 576.411 300.186V300.01C576.411 298.221 576.971 296.776 578.094 295.676C579.216 294.576 580.627 294.026 582.329 294.026C583.942 294.026 585.28 294.518 586.344 295.5C587.407 296.483 587.939 297.942 587.939 299.878V300.758H579.645C579.689 301.712 579.96 302.452 580.459 302.98C580.957 303.508 581.639 303.772 582.505 303.772C583.883 303.772 584.683 303.237 584.903 302.166H587.917C587.726 303.413 587.154 304.37 586.201 305.037C585.247 305.705 583.986 306.038 582.417 306.038ZM579.689 298.8H584.837C584.734 297.084 583.897 296.226 582.329 296.226C581.609 296.226 581.019 296.45 580.558 296.897C580.096 297.345 579.806 297.979 579.688 298.8H579.689ZM590.029 305.796V294.29H593.219V296.49C593.952 294.921 595.191 294.129 596.937 294.114V297.084C595.705 297.07 594.777 297.294 594.154 297.755C593.53 298.217 593.219 298.976 593.219 300.032V305.796H590.029ZM447.064 278H431.599C427.41 278 425.13 278 422.578 280.6C420.025 283.2 420 285.475 420 289.7V305.3C420 309.525 420.025 311.8 422.578 314.4C425.13 317 427.41 317 431.598 317H447.064C451.252 317 453.828 317 456.085 314.4C458.343 311.8 458.663 309.525 458.663 305.3V289.7C458.663 285.475 458.643 283.2 456.085 280.6C453.527 278 451.262 278 447.064 278ZM433.854 297.3H430.407V294.91H435.176C435.873 293.8 436.639 292.735 437.47 291.722H427.162V303.278H430.407V300.488H432.651C432.965 299.395 433.368 298.329 433.855 297.301L433.854 297.3ZM446.131 291.722L444.038 297.889L442 291.722H438.723C436.96 294.584 436.492 299.573 436.492 303.278H439.737V295.585L442.462 303.278H445.612L448.275 295.585V303.278H451.5V291.722H446.13H446.131Z" fill="#B2B2B2"/>
<path fill-rule="evenodd" clip-rule="evenodd" d="M436.095 78L437.895 81.135C438.255 81.785 438.255 82.577 437.895 83.225L427.167 101.856L432.243 110.649C432.634 111.325 433.195 111.887 433.871 112.279C434.547 112.671 435.314 112.879 436.095 112.883C437.679 112.883 439.155 112.018 439.947 110.649L445.023 101.856L443.691 99.478L437.931 109.46C437.571 110.108 436.851 110.505 436.131 110.505C435.375 110.505 434.691 110.108 434.331 109.46L429.903 101.856L439.875 84.559L441.675 87.694C442.035 88.343 442.035 89.135 441.675 89.784L434.727 101.856L436.095 104.235L443.655 91.117L448.623 99.73C448.994 100.383 449.19 101.122 449.19 101.874C449.19 102.626 448.994 103.365 448.623 104.018L443.583 112.775C442.827 114.108 440.415 117.099 436.095 117.099C431.775 117.099 429.399 114.109 428.607 112.775L423.567 104.018C423.195 103.365 423 102.626 423 101.874C423 101.122 423.195 100.383 423.567 99.73L436.095 78ZM459.531 87.334H463.023V107.982H459.531V87.334ZM467.703 91.117C468.109 91.1172 468.506 90.997 468.844 90.7716C469.181 90.5461 469.445 90.2256 469.6 89.8506C469.756 89.4755 469.797 89.0627 469.718 88.6645C469.639 88.2662 469.443 87.9003 469.156 87.613C468.869 87.3258 468.504 87.1301 468.105 87.0506C467.707 86.9712 467.294 87.0117 466.919 87.1669C466.544 87.3221 466.223 87.5851 465.997 87.9226C465.772 88.2601 465.651 88.657 465.651 89.063C465.651 90.198 466.57 91.117 467.703 91.117ZM465.939 93.64H469.467V107.982H465.939V93.64ZM478.719 93.28C474.723 93.28 471.483 96.09 471.483 100.559C471.483 105.027 474.291 107.766 478.755 107.766C480.519 107.766 482.391 108.667 482.391 110.649C482.391 112.631 480.807 113.749 478.755 113.749C476.703 113.749 475.011 112.523 475.011 110.649H471.483C471.483 114.505 474.579 117.063 478.755 117.063C482.895 117.063 485.919 114.613 485.919 110.649C485.919 108.811 485.343 107.081 482.967 105.892C485.307 104.812 485.991 102.325 485.991 100.522C485.991 96.09 482.715 93.28 478.719 93.28ZM496.215 93.28C494.595 93.28 493.047 93.784 491.751 95.406V87.298H488.223V107.946H491.751V100.667C491.751 98.541 493.191 96.775 495.279 96.775C497.151 96.775 498.519 97.892 498.519 100.487V107.947H502.047V100.235C502.083 96.018 500.283 93.28 496.215 93.28ZM510.651 105.532C510.219 105.532 509.859 105.388 509.643 105.099C509.427 104.811 509.319 104.379 509.319 103.73V96.667H512.163L512.487 93.604H509.355V89.676L505.791 90.072V93.64H503.091V96.703H505.791V103.838C505.791 105.316 506.151 106.433 506.835 107.19C507.519 107.946 508.563 108.343 509.895 108.343C510.507 108.343 511.083 108.271 511.695 108.09C512.272 107.926 512.819 107.671 513.315 107.334L512.091 105.064C511.67 105.363 511.167 105.527 510.651 105.532ZM525.159 100.271C523.719 99.37 522.027 99.261 520.371 99.153C519.399 99.081 517.923 98.865 517.923 97.603C517.923 96.703 518.859 96.199 520.551 96.199C521.919 96.199 523.107 96.523 524.115 97.459L526.095 95.153C524.439 93.712 522.747 93.28 520.479 93.28C517.851 93.28 514.395 94.433 514.395 97.748C514.395 99.118 515.115 100.378 516.303 101.099C517.635 101.929 519.363 102.036 520.839 102.217C521.847 102.325 523.503 102.577 523.215 103.982C523.035 104.955 521.847 105.244 521.019 105.28C520.119 105.316 519.219 105.244 518.319 105.027C517.383 104.775 516.627 104.343 515.799 103.802L513.999 106.072C514.107 106.144 514.215 106.252 514.215 106.252C516.519 108.162 519.723 108.775 522.639 108.126C524.835 107.622 526.707 106.036 526.707 103.658C526.779 102.325 526.347 100.991 525.159 100.271ZM536.787 93.28C535.167 93.28 533.259 93.964 532.143 95.55L532.035 93.604H528.615V114.253L532.143 113.856V106.289C533.151 107.839 535.347 108.343 536.859 108.343C541.431 108.343 544.095 104.919 544.095 100.775C544.095 96.559 541.179 93.28 536.787 93.28ZM548.703 102.072C549.099 103.766 550.647 105.244 553.167 105.244C554.463 105.244 556.191 104.594 557.019 103.766L559.287 106C557.775 107.55 555.291 108.307 553.131 108.307C548.667 108.307 545.427 105.352 545.427 100.775C545.427 96.451 548.775 93.28 552.879 93.28C557.199 93.28 560.799 96.235 560.439 102.072H548.703ZM565.047 102.072C565.443 103.766 566.991 105.244 569.511 105.244C570.807 105.244 572.535 104.594 573.363 103.766L575.631 106C574.119 107.55 571.635 108.307 569.475 108.307C565.011 108.307 561.771 105.352 561.771 100.775C561.771 96.451 565.119 93.28 569.223 93.28C573.543 93.28 577.143 96.235 576.783 102.072H565.047ZM585.315 108.342C586.935 108.342 588.843 107.658 589.959 106.072L590.067 107.982H593.487V87.334H589.959V95.334C588.951 93.784 586.719 93.316 585.207 93.316C580.635 93.316 578.007 96.703 578.007 100.883C578.007 105.063 580.923 108.343 585.315 108.343V108.342ZM478.755 104.847C476.703 104.847 475.011 103.081 475.011 100.559C475.011 98.072 476.703 96.235 478.755 96.235C480.807 96.235 482.463 98.108 482.463 100.559C482.463 103.045 480.771 104.847 478.755 104.847ZM536.499 105.28C534.087 105.28 532.467 103.081 532.467 100.847C532.467 98.613 533.979 96.235 536.499 96.235C539.055 96.235 540.531 98.649 540.531 100.847C540.567 103.081 538.911 105.28 536.499 105.28ZM557.019 99.37C556.623 97.676 554.931 96.199 552.879 96.199C550.971 96.199 549.207 97.496 548.703 99.369H557.019V99.37ZM573.399 99.37C573.003 97.676 571.311 96.199 569.259 96.199C567.351 96.199 565.587 97.496 565.083 99.369H573.399V99.37ZM585.567 96.343C587.979 96.343 589.599 98.541 589.599 100.775C589.599 103.009 588.087 105.388 585.567 105.388C583.011 105.388 581.535 102.973 581.535 100.775C581.535 98.541 583.155 96.343 585.567 96.343Z" fill="#B2B2B2"/>
<path fill-rule="evenodd" clip-rule="evenodd" d="M783.453 124.835V120.01L840.813 98.853V103.679L783.453 124.835ZM805.183 108.66C805.183 108.66 804.559 108.143 804.57 106.29C804.579 104.954 804.57 100.966 804.57 100.966C804.57 100.162 804.276 99.796 803.759 99.796C803.537 99.795 803.242 99.867 802.872 100.012L800.659 100.811V110.316L795.494 112.201V84.787L804.054 81.666C805.16 81.23 806.12 81.013 806.859 81.088C808.48 81.092 809.146 82.117 809.146 84.457V90.818C809.146 92.5 807.873 94.588 805.953 95.606V95.681C806.248 95.607 806.543 95.608 806.764 95.608C808.167 95.612 809.77 96.498 809.737 98.308C809.737 98.308 809.72 103.011 809.737 104.606C809.754 106.339 810.349 106.773 810.349 106.773L805.183 108.66ZM803.907 88.099C803.907 87.222 803.759 86.927 803.242 86.926C803.022 86.926 802.726 86.924 802.284 87.07L800.659 87.651V96.131L802.209 95.551C803.464 95.116 803.907 94.386 803.907 93.143V88.099ZM829.377 100.376V72.886L834.541 71V93.883L840.813 91.56V96.168L829.377 100.376ZM788.742 92.006V114.67L783.575 116.557V93.893L779 95.562V90.81L793.243 85.584V90.336L788.742 92.006ZM821.227 103.165L816.8 104.835C815.913 103.808 811.304 79.159 811.304 79.159L816.47 77.272C816.47 77.272 818.495 93.883 819.012 94.762C819.529 93.519 821.642 75.564 821.642 75.564L826.807 73.677C826.807 73.677 822.037 101.704 821.227 103.165Z" fill="#838997"/>
</svg>
